<svg width="14" height="14" viewBox="0 0 14 14" fill="none" xmlns="http://www.w3.org/2000/svg">
<path d="M9.5725 10.3775L10.36 9.59L7.5775 6.79V3.2725H6.5275V7.21L9.5725 10.3775ZM7 14C6.04333 14 5.13917 13.8162 4.2875 13.4487C3.43583 13.0812 2.69208 12.5796 2.05625 11.9437C1.42042 11.3079 0.91875 10.5642 0.55125 9.7125C0.18375 8.86083 0 7.95667 0 7C0 6.04333 0.18375 5.13917 0.55125 4.2875C0.91875 3.43583 1.42042 2.69208 2.05625 2.05625C2.69208 1.42042 3.43583 0.91875 4.2875 0.55125C5.13917 0.18375 6.04333 0 7 0C7.95667 0 8.86083 0.18375 9.7125 0.55125C10.5642 0.91875 11.3079 1.42042 11.9437 2.05625C12.5796 2.69208 13.0812 3.43583 13.4487 4.2875C13.8162 5.13917 14 6.04333 14 7C14 7.95667 13.8162 8.86083 13.4487 9.7125C13.0812 10.5642 12.5796 11.3079 11.9437 11.9437C11.3079 12.5796 10.5642 13.0812 9.7125 13.4487C8.86083 13.8162 7.95667 14 7 14ZM7 12.95C8.63333 12.95 10.0333 12.3667 11.2 11.2C12.3667 10.0333 12.95 8.63333 12.95 7C12.95 5.36667 12.3667 3.96667 11.2 2.8C10.0333 1.63333 8.63333 1.05 7 1.05C5.36667 1.05 3.96667 1.63333 2.8 2.8C1.63333 3.96667 1.05 5.36667 1.05 7C1.05 8.63333 1.63333 10.0333 2.8 11.2C3.96667 12.3667 5.36667 12.95 7 12.95Z" fill="#013A51"/>
</svg>
