<svg width="55" height="55" viewBox="0 0 55 55" fill="none" xmlns="http://www.w3.org/2000/svg">
<path d="M24.8956 41.1221L17.7165 34.0004L19.5277 32.1892L24.8956 37.4644L35.2168 27.121L37.0501 28.9675L24.8956 41.1221ZM11.3263 49.2708C10.4276 49.2708 9.65209 48.9446 8.99965 48.2921C8.34721 47.6397 8.021 46.8641 8.021 45.9655V12.7806C8.021 11.8819 8.34721 11.1064 8.99965 10.4539C9.65209 9.80148 10.4276 9.47526 11.3263 9.47526H15.5571V5.46484H18.4437V9.47526H36.6447V5.46484H39.4651V9.47526H43.6739C44.5726 9.47526 45.3481 9.80148 46.0006 10.4539C46.653 11.1064 46.9792 11.8819 46.9792 12.7806V45.9655C46.9792 46.8641 46.653 47.6397 46.0006 48.2921C45.3481 48.9446 44.5726 49.2708 43.6739 49.2708H11.3263ZM11.3263 46.6707H43.6739C43.8502 46.6707 44.0118 46.5972 44.1587 46.4503C44.3056 46.3034 44.3791 46.1418 44.3791 45.9655V23.2032H10.6211V45.9655C10.6211 46.1418 10.6946 46.3034 10.8415 46.4503C10.9884 46.5972 11.15 46.6707 11.3263 46.6707ZM10.6211 20.6031H44.3791V12.7806C44.3791 12.6043 44.3056 12.4427 44.1587 12.2957C44.0118 12.1488 43.8502 12.0754 43.6739 12.0754H11.3263C11.15 12.0754 10.9884 12.1488 10.8415 12.2957C10.6946 12.4427 10.6211 12.6043 10.6211 12.7806V20.6031Z" fill="white"/>
</svg>
