<svg width="55" height="55" viewBox="0 0 55 55" fill="none" xmlns="http://www.w3.org/2000/svg">
<path d="M20.2857 50.1083L16.1959 43.1231L8.13993 41.4792L9.00366 33.5201L3.83423 27.5002L9.00366 21.5154L8.13993 13.5784L16.1959 11.9125L20.2857 4.89209L27.5 8.15771L34.7143 4.89209L38.8613 11.9125L46.8821 13.5784L45.9963 21.5154L51.1657 27.5002L45.9963 33.5202L46.8821 41.4793L38.8613 43.1231L34.7143 50.1082L27.5 46.8427L20.2857 50.1083ZM21.4579 46.6841L27.5 44.1721L33.6698 46.6841L37.3762 41.021L43.9691 39.3904L43.3257 32.6388L47.8561 27.5002L43.3257 22.2911L43.9691 15.5174L37.3762 13.9794L33.5993 8.3163L27.5 10.8283L21.3301 8.3163L17.6238 13.9794L11.0309 15.5174L11.6743 22.2911L7.14385 27.5002L11.6743 32.6388L11.0309 39.4609L17.6238 41.021L21.4579 46.6841ZM25.0585 34.4589L37.2483 22.3616L35.2872 20.5856L25.0585 30.7438L19.748 25.2482L17.7516 27.2093L25.0585 34.4589Z" fill="white"/>
</svg>
