<svg width="55" height="55" viewBox="0 0 55 55" fill="none" xmlns="http://www.w3.org/2000/svg">
<path d="M22.9564 49.2706L21.9207 42.3823C21.1363 42.115 20.2916 41.7264 19.3867 41.2167C18.4818 40.7069 17.7017 40.167 17.0465 39.597L10.6387 42.5145L6.05981 34.4188L11.8507 30.1573C11.7743 29.7547 11.7192 29.3155 11.6854 28.8396C11.6516 28.3636 11.6347 27.9243 11.6347 27.5218C11.6347 27.134 11.6516 26.7021 11.6854 26.2261C11.7192 25.7502 11.7743 25.2889 11.8507 24.8423L6.05981 20.5587L10.6387 12.5291L17.0245 15.4025C17.7237 14.8325 18.5111 14.2963 19.3867 13.7939C20.2622 13.2915 21.0996 12.9184 21.8987 12.6745L22.9564 5.729H32.0437L33.0793 12.6392C33.9225 12.9507 34.7658 13.337 35.609 13.7983C36.4522 14.2596 37.2117 14.7943 37.8874 15.4025L44.3834 12.5291L48.9402 20.5587L43.0612 24.8159C43.167 25.2713 43.2331 25.7296 43.2596 26.1909C43.286 26.6522 43.2992 27.0885 43.2992 27.4998C43.2992 27.8964 43.2823 28.3195 43.2485 28.769C43.2148 29.2185 43.1523 29.6857 43.0612 30.1705L48.9182 34.4188L44.3393 42.5145L37.8874 39.575C37.1735 40.1744 36.403 40.7275 35.5759 41.2343C34.7488 41.7411 33.9166 42.1165 33.0793 42.3603L32.0437 49.2706H22.9564ZM27.4339 33.956C29.2319 33.956 30.7575 33.3295 32.0106 32.0765C33.2636 30.8234 33.8902 29.2978 33.8902 27.4998C33.8902 25.7017 33.2636 24.1762 32.0106 22.9231C30.7575 21.6701 29.2319 21.0435 27.4339 21.0435C25.6505 21.0435 24.1287 21.6701 22.8683 22.9231C21.6079 24.1762 20.9776 25.7017 20.9776 27.4998C20.9776 29.2978 21.6079 30.8234 22.8683 32.0765C24.1287 33.3295 25.6505 33.956 27.4339 33.956ZM27.4339 31.3559C26.3703 31.3559 25.4618 30.9791 24.7081 30.2255C23.9546 29.4719 23.5778 28.5633 23.5778 27.4998C23.5778 26.4362 23.9546 25.5276 24.7081 24.774C25.4618 24.0204 26.3703 23.6437 27.4339 23.6437C28.5122 23.6437 29.4244 24.0204 30.1707 24.774C30.917 25.5276 31.2901 26.4362 31.2901 27.4998C31.2901 28.5633 30.917 29.4719 30.1707 30.2255C29.4244 30.9791 28.5122 31.3559 27.4339 31.3559ZM25.0453 46.6704H29.9327L30.7568 40.2758C31.9732 39.9703 33.108 39.5149 34.1613 38.9096C35.2146 38.3044 36.2216 37.5361 37.1823 36.6047L43.1671 39.1961L45.4587 35.1372L40.1615 31.2282C40.3143 30.5494 40.4347 29.9097 40.5228 29.3089C40.611 28.708 40.655 28.105 40.655 27.4998C40.655 26.8652 40.6169 26.2548 40.5405 25.6687C40.4641 25.0826 40.3377 24.4648 40.1615 23.8155L45.5028 19.8624L43.2111 15.8035L37.1603 18.3948C36.3552 17.4899 35.3842 16.6922 34.2472 16.0018C33.1102 15.3114 31.9394 14.8853 30.7348 14.7237L29.9547 8.32913H25.0453L24.2873 14.7017C23.0181 14.9544 21.8495 15.387 20.7815 15.9996C19.7135 16.6122 18.7183 17.4033 17.7957 18.3728L11.7889 15.8035L9.49726 19.8624L14.7945 23.7494C14.627 24.3546 14.4992 24.9687 14.4111 25.5915C14.323 26.2144 14.2789 26.8578 14.2789 27.5218C14.2789 28.1564 14.323 28.7778 14.4111 29.386C14.4992 29.9942 14.6197 30.6082 14.7724 31.2282L9.49726 35.1372L11.7889 39.1961L17.7737 36.6267C18.6903 37.5581 19.6863 38.3264 20.7617 38.9316C21.837 39.5369 23.0049 39.9923 24.2653 40.2978L25.0453 46.6704Z" fill="white"/>
</svg>
