<svg width="24" height="24" viewBox="0 0 24 24" fill="none" xmlns="http://www.w3.org/2000/svg">
<path d="M19.4 11.8251C19.3167 9.80843 18.575 8.1001 17.175 6.7001C15.775 5.3001 14.0667 4.55843 12.05 4.4751V2.9751C13.25 3.00843 14.3792 3.2626 15.4375 3.7376C16.4958 4.2126 17.425 4.8501 18.225 5.6501C19.025 6.4501 19.6625 7.37926 20.1375 8.4376C20.6125 9.49593 20.8667 10.6251 20.9 11.8251H19.4ZM15.175 11.8251C15.0917 10.9918 14.7583 10.2876 14.175 9.7126C13.5917 9.1376 12.8833 8.80843 12.05 8.7251V7.2251C13.3 7.30843 14.3625 7.78343 15.2375 8.6501C16.1125 9.51676 16.5917 10.5751 16.675 11.8251H15.175ZM19.875 21.0001C17.8417 21.0001 15.8208 20.5001 13.8125 19.5001C11.8042 18.5001 10 17.2001 8.4 15.6001C6.8 14.0001 5.5 12.1959 4.5 10.1876C3.5 8.17926 3 6.15843 3 4.1251C3 3.80366 3.10714 3.53581 3.32142 3.32152C3.53571 3.10724 3.80357 3.0001 4.125 3.0001H7.625C7.85185 3.0001 8.0544 3.07926 8.23265 3.2376C8.41088 3.39593 8.525 3.60843 8.575 3.8751L9.25 7.0251C9.28333 7.25843 9.27917 7.47093 9.2375 7.6626C9.19583 7.85426 9.10833 8.01676 8.975 8.1501L6.475 10.6751C7.40833 12.2251 8.45417 13.5751 9.6125 14.7251C10.7708 15.8751 12.0833 16.8501 13.55 17.6501L15.925 15.2001C16.0917 15.0168 16.2833 14.8876 16.5 14.8126C16.7167 14.7376 16.9333 14.7251 17.15 14.7751L20.125 15.4251C20.3802 15.4813 20.5898 15.6079 20.7539 15.8048C20.918 16.0017 21 16.2334 21 16.5001V19.8751C21 20.1965 20.8929 20.4644 20.6786 20.6787C20.4643 20.893 20.1964 21.0001 19.875 21.0001ZM5.725 9.3001L7.75 7.2501L7.175 4.5001H4.5C4.5 5.1501 4.6 5.8626 4.8 6.6376C5 7.4126 5.30833 8.3001 5.725 9.3001ZM14.95 18.3751C15.6333 18.6918 16.375 18.9501 17.175 19.1501C17.975 19.3501 18.75 19.4668 19.5 19.5001V16.8251L16.925 16.3001L14.95 18.3751Z" fill="#0C91FC"/>
</svg>
