<svg width="55" height="55" viewBox="0 0 55 55" fill="none" xmlns="http://www.w3.org/2000/svg">
<path d="M22.4804 32.5196V22.5157H32.4843V32.5196H22.4804ZM25.0805 29.9195H29.8842V25.1158H25.0805V29.9195ZM21.198 46.4502V42.3958H15.9095C15.0109 42.3958 14.2353 42.0696 13.5829 41.4171C12.9304 40.7647 12.6042 39.9891 12.6042 39.0904V33.802H8.5498V31.202H12.6042V23.635H8.5498V21.0349H12.6042V15.7465C12.6042 14.8478 12.9304 14.0723 13.5829 13.4198C14.2353 12.7674 15.0109 12.4412 15.9095 12.4412H21.198V8.5498H23.798V12.4412H31.365V8.5498H33.9651V12.4412H39.2535C40.1522 12.4412 40.9277 12.7674 41.5802 13.4198C42.2326 14.0723 42.5588 14.8478 42.5588 15.7465V21.0349H46.4502V23.635H42.5588V31.202H46.4502V33.802H42.5588V39.0904C42.5588 39.9891 42.2326 40.7647 41.5802 41.4171C40.9277 42.0696 40.1522 42.3958 39.2535 42.3958H33.9651V46.4502H31.365V42.3958H23.798V46.4502H21.198ZM39.2535 39.7956C39.4298 39.7956 39.5914 39.7222 39.7384 39.5753C39.8852 39.4284 39.9587 39.2668 39.9587 39.0904V15.7465C39.9587 15.5702 39.8852 15.4086 39.7384 15.2616C39.5914 15.1147 39.4298 15.0413 39.2535 15.0413H15.9095C15.7332 15.0413 15.5716 15.1147 15.4247 15.2616C15.2778 15.4086 15.2043 15.5702 15.2043 15.7465V39.0904C15.2043 39.2668 15.2778 39.4284 15.4247 39.5753C15.5716 39.7222 15.7332 39.7956 15.9095 39.7956H39.2535Z" fill="white"/>
</svg>
