<svg width="9" height="16" viewBox="0 0 9 16" fill="none" xmlns="http://www.w3.org/2000/svg">
<path d="M7.0957 0.722656C7.20781 0.722656 7.33267 0.773274 7.43652 0.892578C7.54232 1.01441 7.61127 1.19323 7.61133 1.3916C7.61133 1.59008 7.54237 1.76873 7.43652 1.89062L2.4082 7.67969L2.12402 8.00781L2.4082 8.33496L7.43066 14.1182H7.43164C7.53487 14.2415 7.60109 14.4193 7.59961 14.6152C7.59811 14.8112 7.52925 14.987 7.4248 15.1074C7.32213 15.2256 7.19893 15.2771 7.08789 15.2783C7.00467 15.2792 6.91462 15.2516 6.83105 15.1895L6.75 15.1152L1.00879 8.50684C0.902999 8.38501 0.834058 8.20616 0.833984 8.00781C0.833984 7.80946 0.903053 7.63067 1.00879 7.50879L6.75586 0.892578C6.85957 0.773462 6.98373 0.722791 7.0957 0.722656Z" fill="#0C91FC" stroke="#BCBCBC"/>
</svg>
