<svg width="9" height="16" viewBox="0 0 9 16" fill="none" xmlns="http://www.w3.org/2000/svg">
<path d="M1.9043 0.722656C1.79219 0.722656 1.66733 0.773274 1.56348 0.892578C1.45768 1.01441 1.38873 1.19323 1.38867 1.3916C1.38867 1.59008 1.45763 1.76873 1.56348 1.89062L6.5918 7.67969L6.87598 8.00781L6.5918 8.33496L1.56934 14.1182H1.56836C1.46513 14.2415 1.39891 14.4193 1.40039 14.6152C1.40189 14.8112 1.47075 14.987 1.5752 15.1074C1.67787 15.2256 1.80107 15.2771 1.91211 15.2783C1.99533 15.2792 2.08538 15.2516 2.16895 15.1895L2.25 15.1152L7.99121 8.50684C8.097 8.38501 8.16594 8.20616 8.16602 8.00781C8.16602 7.80946 8.09695 7.63067 7.99121 7.50879L2.24414 0.892578C2.14043 0.773462 2.01627 0.722791 1.9043 0.722656Z" fill="#0C91FC" stroke="white"/>
</svg>
